<?xml version="1.0" encoding="UTF-8" standalone="no"?>
<svg
   xmlns:dc="http://purl.org/dc/elements/1.1/"
   xmlns:cc="http://creativecommons.org/ns#"
   xmlns:rdf="http://www.w3.org/1999/02/22-rdf-syntax-ns#"
   xmlns:svg="http://www.w3.org/2000/svg"
   xmlns="http://www.w3.org/2000/svg"
   xmlns:sodipodi="http://sodipodi.sourceforge.net/DTD/sodipodi-0.dtd"
   xmlns:inkscape="http://www.inkscape.org/namespaces/inkscape"
   height="22"
   viewBox="0 0 22 22"
   width="22"
   version="1.1"
   id="svg4"
   sodipodi:docname="dropboxstatus-busy2-symbolic.svg"
   inkscape:version="0.92.3 (2405546, 2018-03-11)">
  <metadata
     id="metadata10">
    <rdf:RDF>
      <cc:Work
         rdf:about="">
        <dc:format>image/svg+xml</dc:format>
        <dc:type
           rdf:resource="http://purl.org/dc/dcmitype/StillImage" />
        <dc:title />
      </cc:Work>
    </rdf:RDF>
  </metadata>
  <defs
     id="defs8" />
  <sodipodi:namedview
     pagecolor="#ffffff"
     bordercolor="#666666"
     borderopacity="1"
     objecttolerance="10"
     gridtolerance="10"
     guidetolerance="10"
     inkscape:pageopacity="0"
     inkscape:pageshadow="2"
     inkscape:window-width="1920"
     inkscape:window-height="1017"
     id="namedview6"
     showgrid="false"
     inkscape:zoom="10.727273"
     inkscape:cx="-3.5889824"
     inkscape:cy="11"
     inkscape:window-x="0"
     inkscape:window-y="30"
     inkscape:window-maximized="1"
     inkscape:current-layer="svg4" />
  <path
     d="M 6.7442554,2.9999999 2.009905,5.8235293 5.7973854,8.6319999 2.0004363,11.463059 6.7442554,14.294117 10.531735,11.470588 5.7973854,8.6470591 10.531735,5.8235293 l 4.734351,2.8376471 -4.734351,2.8094116 1.682588,1.255529 a 4.7343504,4.7058823 0 0 1 3.998633,-2.196705 4.7371911,4.7087059 0 0 1 2.821673,0.935529 L 19.063038,11.448 15.266089,8.6470591 19.05357,5.8235293 14.319219,2.9999999 10.531738,5.8084705 Z m 9.4687006,8.4705881 a 3.7874805,3.7647061 0 1 0 0,7.529412 3.7874805,3.7647061 0 0 0 0,-7.529412 z m -5.681221,0.941176 -3.7874796,2.82353 -0.94687,-0.564706 v 0.564706 l 4.7343496,2.823529 1.397581,-0.83294 a 4.7343504,4.7058823 0 0 1 -0.450711,-1.990589 4.7343504,4.7058823 0 0 1 0.374961,-1.838117 z m 5.681221,0 a 2.8406102,2.8235294 0 0 1 2.84061,2.82353 h -0.94687 a 1.8937402,1.882353 0 0 0 -1.89374,-1.882353 z m -2.84061,2.82353 h 0.94687 a 1.8937402,1.882353 0 0 0 1.89374,1.882353 v 0.941176 a 2.8406102,2.8235294 0 0 1 -2.84061,-2.823529 z"
     id="path2"
     style="color:#000000;fill:#000000;stroke-width:0.94401896"
     inkscape:connector-curvature="0" />
</svg>
