<?xml version="1.0" encoding="UTF-8" standalone="no"?>
<svg
   xmlns:dc="http://purl.org/dc/elements/1.1/"
   xmlns:cc="http://creativecommons.org/ns#"
   xmlns:rdf="http://www.w3.org/1999/02/22-rdf-syntax-ns#"
   xmlns:svg="http://www.w3.org/2000/svg"
   xmlns="http://www.w3.org/2000/svg"
   xmlns:sodipodi="http://sodipodi.sourceforge.net/DTD/sodipodi-0.dtd"
   xmlns:inkscape="http://www.inkscape.org/namespaces/inkscape"
   height="22"
   viewBox="0 0 22 22"
   width="22"
   version="1.1"
   id="svg4"
   sodipodi:docname="dropboxstatus-stopped-symbolic.svg"
   inkscape:version="0.92.3 (2405546, 2018-03-11)">
  <metadata
     id="metadata10">
    <rdf:RDF>
      <cc:Work
         rdf:about="">
        <dc:format>image/svg+xml</dc:format>
        <dc:type
           rdf:resource="http://purl.org/dc/dcmitype/StillImage" />
        <dc:title />
      </cc:Work>
    </rdf:RDF>
  </metadata>
  <defs
     id="defs8" />
  <sodipodi:namedview
     pagecolor="#ffffff"
     bordercolor="#666666"
     borderopacity="1"
     objecttolerance="10"
     gridtolerance="10"
     guidetolerance="10"
     inkscape:pageopacity="0"
     inkscape:pageshadow="2"
     inkscape:window-width="1920"
     inkscape:window-height="1017"
     id="namedview6"
     showgrid="false"
     inkscape:zoom="10.727273"
     inkscape:cx="11"
     inkscape:cy="11"
     inkscape:window-x="0"
     inkscape:window-y="30"
     inkscape:window-maximized="1"
     inkscape:current-layer="svg4" />
  <path
     d="M 6.9802736,3.5 2.5089428,6.1470588 6.0860075,8.78 2.5000001,11.434118 6.9802736,14.088235 10.557338,11.441176 6.0860075,8.794118 10.557338,6.1470588 l 4.471331,2.6602942 -4.471331,2.633823 1.589111,1.177059 a 4.4713309,4.4117647 0 0 1 3.776486,-2.059411 4.4740137,4.4144118 0 0 1 2.664914,0.877058 L 18.614679,11.42 15.028672,8.794118 18.605737,6.1470588 14.134406,3.5 10.557341,6.1329412 Z m 8.9426614,7.941176 a 3.5770649,3.529412 0 1 0 0,7.058824 3.5770649,3.529412 0 0 0 0,-7.058824 z m -5.365597,0.882353 -3.5770644,2.647059 -0.8942661,-0.529412 v 0.529412 l 4.4713305,2.647059 1.319937,-0.780882 a 4.4713309,4.4117647 0 0 1 -0.425671,-1.866177 4.4713309,4.4117647 0 0 1 0.35413,-1.723235 z m 3.892741,0.57 1.472856,1.453236 1.471962,-1.453236 0.632247,0.623824 -1.471963,1.453235 1.471963,1.452353 -0.632247,0.623824 -1.471962,-1.451471 -1.472856,1.452353 -0.632246,-0.623823 1.472856,-1.452353 -1.472856,-1.453236 0.632246,-0.623823 z"
     id="path2"
     style="color:#000000;fill:#000000;stroke-width:0.88828957"
     inkscape:connector-curvature="0" />
</svg>
