<?xml version="1.0" encoding="UTF-8" standalone="no"?>
<svg
   xmlns:dc="http://purl.org/dc/elements/1.1/"
   xmlns:cc="http://creativecommons.org/ns#"
   xmlns:rdf="http://www.w3.org/1999/02/22-rdf-syntax-ns#"
   xmlns:svg="http://www.w3.org/2000/svg"
   xmlns="http://www.w3.org/2000/svg"
   xmlns:sodipodi="http://sodipodi.sourceforge.net/DTD/sodipodi-0.dtd"
   xmlns:inkscape="http://www.inkscape.org/namespaces/inkscape"
   height="22"
   viewBox="0 0 22 22"
   width="22"
   version="1.1"
   id="svg4"
   sodipodi:docname="dropboxstatus-busy2-dark.svg"
   inkscape:version="0.92.3 (2405546, 2018-03-11)">
  <metadata
     id="metadata10">
    <rdf:RDF>
      <cc:Work
         rdf:about="">
        <dc:format>image/svg+xml</dc:format>
        <dc:type
           rdf:resource="http://purl.org/dc/dcmitype/StillImage" />
        <dc:title></dc:title>
      </cc:Work>
    </rdf:RDF>
  </metadata>
  <defs
     id="defs8" />
  <sodipodi:namedview
     pagecolor="#ffffff"
     bordercolor="#666666"
     borderopacity="1"
     objecttolerance="10"
     gridtolerance="10"
     guidetolerance="10"
     inkscape:pageopacity="0"
     inkscape:pageshadow="2"
     inkscape:window-width="712"
     inkscape:window-height="480"
     id="namedview6"
     showgrid="false"
     inkscape:zoom="10.727273"
     inkscape:cx="11"
     inkscape:cy="11"
     inkscape:window-x="0"
     inkscape:window-y="30"
     inkscape:window-maximized="0"
     inkscape:current-layer="svg4" />
  <path
     d="M7 3.002l-5 3 4 2.984-4.01 3.008L7 15.002l4-3-5-3 5-3 5 3.015-5 2.985 1.777 1.334A5 5 0 0 1 17 11.002a5.003 5.003 0 0 1 2.98.994l.03-.018L16 9.002l4-3-5-3-4 2.984-4-2.984zm10 9a4 4 0 1 0 0 8 4 4 0 0 0 0-8zm-6 1l-4 3-1-.6v.6l5 3 1.476-.885A5 5 0 0 1 12 16.002a5 5 0 0 1 .396-1.953L11 13.002zm6 0v1a2 2 0 0 0-2 2h-1a3 3 0 0 1 3-3zm2 3h1a3 3 0 0 1-3 3v-1a2 2 0 0 0 2-2z"
     color="#000"
     fill="#ffffff"
     id="path2"
     style="fill:#000000" />
</svg>
